<svg width="31" height="29" viewBox="0 0 31 29" fill="none" xmlns="http://www.w3.org/2000/svg">
<path d="M29.1387 20.5565H9.36675L10.3595 18.3921L26.8544 18.3601C27.4122 18.3601 27.8903 17.9336 27.9899 17.3436L30.2742 3.65714C30.334 3.29819 30.2443 2.92857 30.0252 2.64781C29.9169 2.50963 29.7818 2.39832 29.6293 2.32161C29.4768 2.2449 29.3105 2.20461 29.142 2.20355L8.15819 2.12892L7.9789 1.2262C7.86601 0.650452 7.38126 0.231079 6.8301 0.231079H1.70036C1.38951 0.231079 1.0914 0.363256 0.871602 0.598533C0.651803 0.833809 0.52832 1.15291 0.52832 1.48564C0.52832 1.81838 0.651803 2.13748 0.871602 2.37276C1.0914 2.60803 1.38951 2.74021 1.70036 2.74021H5.88052L6.66409 6.72781L8.59314 16.7252L6.10961 21.0647C5.98064 21.251 5.90296 21.4723 5.88536 21.7034C5.86775 21.9345 5.91093 22.1663 6.01001 22.3726C6.20922 22.7955 6.61097 23.062 7.05588 23.062H9.14098C8.69646 23.694 8.45636 24.4638 8.45701 25.2549C8.45701 27.2664 9.98431 28.9013 11.8636 28.9013C13.7428 28.9013 15.2701 27.2664 15.2701 25.2549C15.2701 24.4623 15.0244 23.6911 14.5861 23.062H19.935C19.4905 23.694 19.2504 24.4638 19.2511 25.2549C19.2511 27.2664 20.7784 28.9013 22.6576 28.9013C24.5368 28.9013 26.0641 27.2664 26.0641 25.2549C26.0641 24.4623 25.8185 23.6911 25.3802 23.062H29.142C29.7861 23.062 30.314 22.5005 30.314 21.8075C30.3121 21.4751 30.1874 21.157 29.9672 20.9226C29.7471 20.6883 29.4492 20.5566 29.1387 20.5565ZM8.64626 4.60251L27.7641 4.67004L25.8915 15.8936L10.8741 15.922L8.64626 4.60251ZM11.8636 26.3779C11.2858 26.3779 10.8144 25.8733 10.8144 25.2549C10.8144 24.6365 11.2858 24.1318 11.8636 24.1318C12.4413 24.1318 12.9127 24.6365 12.9127 25.2549C12.9127 25.5527 12.8022 25.8384 12.6054 26.049C12.4087 26.2596 12.1418 26.3779 11.8636 26.3779ZM22.6576 26.3779C22.0799 26.3779 21.6084 25.8733 21.6084 25.2549C21.6084 24.6365 22.0799 24.1318 22.6576 24.1318C23.2353 24.1318 23.7068 24.6365 23.7068 25.2549C23.7068 25.5527 23.5963 25.8384 23.3995 26.049C23.2027 26.2596 22.9359 26.3779 22.6576 26.3779Z" fill="#A9A9A9"/>
</svg>
